<svg width="880" height="150" viewBox="0 0 880 150" fill="none" xmlns="http://www.w3.org/2000/svg">
  <defs>
    <linearGradient id="borda2" x1="0" y1="0" x2="880" y2="150" gradientUnits="userSpaceOnUse">
      <stop offset="0" stop-color="#a371f7"></stop>
      <stop offset="1" stop-color="#58e6d9"></stop>
    </linearGradient>
    <radialGradient id="brilho3" cx="0" cy="0" r="1" gradientUnits="userSpaceOnUse" gradientTransform="translate(760 20) scale(260)">
      <stop offset="0" stop-color="#a371f7" stop-opacity="0.14"></stop>
      <stop offset="1" stop-color="#a371f7" stop-opacity="0"></stop>
    </radialGradient>
    <clipPath id="barra">
      <rect x="44" y="72" width="792" height="14" rx="7"></rect>
    </clipPath>
  </defs>

  

  
  <rect x="1" y="1" width="878" height="148" rx="18" fill="#0d1117"></rect>
  <rect x="1" y="1" width="878" height="148" rx="18" fill="url(#brilho3)"></rect>
  <rect x="1" y="1" width="878" height="148" rx="18" stroke="url(#borda2)" stroke-width="1.5"></rect>

  
  <circle class="ponto2" cx="46" cy="42" r="4.5" fill="#39d353"></circle>
  <text x="60" y="47" font-family="Consolas, &#39;Courier New&#39;, monospace" font-size="14" fill="#7d8590">daniel@github:~$ stack --list</text>

  
  <g clip-path="url(#barra)">
    <g class="seg">
      <rect x="44" y="72" width="206" height="14" fill="#3572A5"></rect>
      <rect x="252" y="72" width="182" height="14" fill="#f1e05a"></rect>
      <rect x="436" y="72" width="150" height="14" fill="#e34c26"></rect>
      <rect x="588" y="72" width="126" height="14" fill="#8957e5"></rect>
      <rect x="716" y="72" width="120" height="14" fill="#1fa8c9"></rect>
    </g>
  </g>

  
  <g font-family="&#39;Segoe UI&#39;, Ubuntu, Helvetica, Arial, sans-serif" font-size="14" fill="#9aa4b2">
    <circle cx="50" cy="116" r="5" fill="#3572A5"></circle><text x="62" y="121">Python</text>
    <circle cx="150" cy="116" r="5" fill="#f1e05a"></circle><text x="162" y="121">JavaScript</text>
    <circle cx="276" cy="116" r="5" fill="#e34c26"></circle><text x="288" y="121">HTML</text>
    <circle cx="368" cy="116" r="5" fill="#8957e5"></circle><text x="380" y="121">CSS</text>
    <circle cx="446" cy="116" r="5" fill="#1fa8c9"></circle><text x="458" y="121">MySQL</text>
    <circle cx="546" cy="116" r="5" fill="#f2711c"></circle><text x="558" y="121">Grafana</text>
    <circle cx="656" cy="116" r="5" fill="#d40000"></circle><text x="668" y="121">Zabbix</text>
    <circle cx="750" cy="116" r="5" fill="#39d353"></circle><text x="762" y="121">GLPI</text>
  </g>
</svg>
